<svg id="Layer_1" data-name="Layer 1" xmlns="http://www.w3.org/2000/svg" viewBox="0 0 387.38 200"><title>Curbed_logo_Black</title><path d="M61.76,108.13v-5.9c0-6.42-2.48-8.38-5.33-7.49C52,96.12,50.56,99.3,50.56,105v38.55c0,5.69,1.43,8,5.87,6.59,4-1.24,5.33-4.4,5.33-9.35v-9.16l11-3.44v8.74c0,10.74-5.34,21.15-16.36,24.59-11.56,3.6-16.89-3.47-16.89-14.22V108.12c0-10.75,5.33-21.15,16.89-24.76,11-3.44,16.36,4.38,16.36,15.75v5.58Z"/><path d="M94.64,72.49l11-3.44v57.4c0,5.58,1.6,8,5.86,6.49,4-1.42,5.87-4.57,5.87-10.15V65.39l11-3.44v56.87c0,13.06-5.17,21.8-15.66,25.08s-18.12-1.48-18.12-14.54Z"/><path d="M314.07,79.25l16.35,5.12c11.38,3.56,17.42,12.83,17.42,28.42v30.12c0,15.58-6,21.06-17.42,17.5l-16.35-5.12Zm11,68.75,3.82,1.2c5.87,1.83,7.91-.16,7.91-8.16V107.76c0-8-2-11.28-7.91-13.12l-3.82-1.19Z"/><polygon points="262.26 139 262.26 62.96 293.01 72.55 293.01 83.93 273.29 77.77 273.29 97.36 287.5 101.8 287.5 113.17 273.29 108.73 273.29 131.06 293.01 137.22 293.01 148.59 262.26 139"/><path d="M233.59,91.06c4.84-1.29,7.24-6.48,7.24-13.93,0-12.65-5-22.44-17.16-26.23l-16.89-5.25V121.8l17.43,5.42c12.54,3.9,17.25-4,17.25-16.47C241.46,101.66,238.57,95.62,233.59,91.06ZM217.91,59.83l4.33,1.35c5.07,1.57,7.47,6,7.47,13,0,6.27-3.32,8.59-7.65,7.24l-4.15-1.29ZM222.46,116l-4.55-1.41V90.87l3.5,1.09c6.48,2,8.93,6.72,8.93,14.61S228.24,117.76,222.46,116Z"/><path d="M176.75,88.57c5.13-5,8.08-11.17,8.09-21.1,0-13.24-4.67-21.76-17.1-17.84l-17.43,5.49v76.21l11-3.48V96.91l5.8-1.82,7.73,28.5,11.36-3.16Zm-10.9-3.84-4.51,1.43V62.48l3.47-1.1c7.19-2.26,8.85.36,8.85,9.06C173.66,78.22,171.58,82.93,165.85,84.73Z"/><path d="M193.69,11.55l182.66,57V189H11V68.58l182.66-57m0-11.55L0,60.47V200H387.38V60.47L193.69,0Z"/></svg>