<svg xmlns="http://www.w3.org/2000/svg" viewBox="0 0 1197.96 270.81"><defs><style>.cls-1,.cls-3,.cls-4,.cls-5{font-size:120.02px;}.cls-1,.cls-3,.cls-4,.cls-9{font-family:OpenSans-Bold, Open Sans;font-weight:700;}.cls-1{letter-spacing:-0.03em;}.cls-2{letter-spacing:-0.08em;}.cls-3{letter-spacing:-0.03em;}.cls-4{letter-spacing:-0.05em;}.cls-5{font-family:OpenSans-Light, Open Sans;font-weight:300;letter-spacing:-0.07em;}.cls-6{letter-spacing:-0.06em;}.cls-7{letter-spacing:-0.05em;}.cls-8{letter-spacing:0.03em;}.cls-9{font-size:31.48px;letter-spacing:-0.03em;}</style></defs><title>Asset 3</title><g id="Layer_2" data-name="Layer 2"><g id="Layer_1-2" data-name="Layer 1"><text class="cls-1" transform="translate(607.52 117.31)">T<tspan class="cls-2" x="65.91" y="0">i</tspan><tspan x="93.53" y="0">ny</tspan></text><text class="cls-3" transform="translate(315.73 117.31)">IKEA</text><text class="cls-4" transform="translate(866.19 117.31)">Home</text><text class="cls-5" transform="translate(309.44 222.88) rotate(-0.22)">Pr<tspan class="cls-6" x="100.12" y="0">oj</tspan><tspan class="cls-7" x="183.17" y="0">e</tspan><tspan class="cls-8" x="243.05" y="0">ct</tspan></text><path d="M135.58,33.63l76.64,73.49v92.39H60.15V107l75.43-73.38M135.46,0,36,96.8V223.69H236.41V96.8L135.46,0Z"/><path d="M233.16,50.57V82.76l7.4,6.66H272l-7.21-7.17H246l26-25.72L266.9,51,241,76.29v-18Z"/><path d="M31,58.3v18L5.1,51,0,56.52,26,82.24H7.22L0,89.41H31.45l7.4-6.66V50.57Z"/><path d="M39.28,270.81V238.62L31.89,232H.44l7.22,7.17H26.41l-26,25.73,5.11,5.51L31.4,245.09v18Z"/><path d="M240.6,263.08v-18l25.86,25.28,5.11-5.51-26-25.73h18.75l7.22-7.17H240.11l-7.4,6.66v32.19Z"/><text class="cls-9" transform="translate(553.36 53.24)">®</text></g></g></svg>