<svg xmlns="http://www.w3.org/2000/svg" viewBox="0 0 1197.94 270.81"><defs><style>.cls-1{fill:#fff;}</style></defs><title>Asset 6</title><g id="Layer_2" data-name="Layer 2"><g id="Layer_1-2" data-name="Layer 1"><path class="cls-1" d="M651.36,117.31H633.19V46.75H609.92V31.63h64.7V46.75H651.36Z"/><path class="cls-1" d="M682,34.85q0-8.73,9.73-8.73t9.73,8.73a8.51,8.51,0,0,1-2.43,6.48c-1.62,1.54-4.06,2.32-7.3,2.32Q682,43.65,682,34.85Zm18.64,82.46H682.8V51.79h17.88Z"/><path class="cls-1" d="M770.91,117.31H753V79q0-7.08-2.52-10.63t-8-3.55q-7.5,0-10.84,5t-3.34,16.62v30.82H710.43V51.79h13.66l2.4,8.38h1A19,19,0,0,1,735.72,53a28,28,0,0,1,11.93-2.43q11.42,0,17.34,6.18t5.92,17.85Z"/><path class="cls-1" d="M776.34,51.79h19.57l12.37,36.86A52.11,52.11,0,0,1,810.45,100h.35a50.38,50.38,0,0,1,2.52-11.37l12.13-36.86h19.16l-27.72,73.9Q813.08,136,806,141.05a27.45,27.45,0,0,1-16.5,5.1,41.15,41.15,0,0,1-9.08-1V131a30.42,30.42,0,0,0,7,.76,12.7,12.7,0,0,0,8.29-2.9,18.78,18.78,0,0,0,5.54-8.76l1.06-3.23Z"/><path class="cls-1" d="M326.52,117.31V31.63h18.16v85.68Z"/><path class="cls-1" d="M431.57,117.31H410.94L388.5,81.21l-7.68,5.51v30.59H362.65V31.63h18.17V70.84L388,60.76l23.21-29.13h20.16L401.45,69.55Z"/><path class="cls-1" d="M488.1,117.31H438.75V31.63H488.1V46.52H456.92V65.33h29V80.22h-29v22.09H488.1Z"/><path class="cls-1" d="M554.83,117.31l-6.22-20.39H517.38l-6.22,20.39H491.59l30.24-86H544l30.36,86ZM544.28,81.68q-8.62-27.72-9.7-31.35c-.73-2.43-1.24-4.34-1.56-5.75q-1.93,7.5-11.07,37.1Z"/><path class="cls-1" d="M947.18,117.31H929.07v-37H895.14v37H877V31.63h18.17V65.21h33.93V31.63h18.11Z"/><path class="cls-1" d="M1020.94,84.44q0,16-8.44,25t-23.5,9a32.79,32.79,0,0,1-16.64-4.14,27.48,27.48,0,0,1-11.08-11.86,39.89,39.89,0,0,1-3.87-18q0-16.06,8.38-25t23.56-8.91a33.15,33.15,0,0,1,16.65,4.1,27.43,27.43,0,0,1,11.07,11.78A39.52,39.52,0,0,1,1020.94,84.44Zm-45.3,0q0,9.72,3.19,14.71t10.4,5q7.15,0,10.29-5t3.14-14.73q0-9.73-3.17-14.6T989.12,65Q982,65,978.8,69.81T975.64,84.44Z"/><path class="cls-1" d="M1088.37,117.31H1070.5V79q0-7.08-2.38-10.63t-7.47-3.55q-6.86,0-10,5t-3.11,16.59v30.82h-17.87V51.79h13.65l2.41,8.38h1a18.17,18.17,0,0,1,7.62-7.06,24.73,24.73,0,0,1,11.43-2.55q14.71,0,19.93,9.61h1.58a17.67,17.67,0,0,1,7.76-7.09,25.92,25.92,0,0,1,11.58-2.52q11.13,0,16.85,5.72t5.71,18.31v42.72h-17.93V79q0-7.08-2.38-10.63t-7.47-3.55q-6.56,0-9.82,4.69t-3.25,14.89Z"/><path class="cls-1" d="M1171.22,118.49q-15.83,0-24.73-8.74T1137.58,85q0-16.47,8.23-25.46t22.77-9q13.89,0,21.63,7.91t7.73,21.86V89h-42.25q.29,7.62,4.51,11.89t11.84,4.28a49.14,49.14,0,0,0,11.19-1.23,55.78,55.78,0,0,0,11-3.93v13.84a42.14,42.14,0,0,1-10,3.48A63.28,63.28,0,0,1,1171.22,118.49Zm-2.52-55.21q-5.68,0-8.91,3.6t-3.69,10.23h25.08q-.12-6.61-3.46-10.23A11.69,11.69,0,0,0,1168.7,63.28Z"/><path class="cls-1" d="M372.91,161.57q.06,12.42-8.36,19.08t-23.89,6.71l-13.24,0,.13,35.4-6,0-.33-85.68,21-.08Q372.82,137,372.91,161.57ZM327.4,182.26l11.78,0q14.47-.06,20.9-4.86t6.39-15.52q0-9.9-6.15-14.66t-18.89-4.7l-14.18.05Z"/><path class="cls-1" d="M406.75,157.57a49.45,49.45,0,0,1,8.68.79l-1.09,5.57a34.23,34.23,0,0,0-8.27-1q-8.15,0-13.34,7t-5.15,17.49l.14,35.16-5.8,0-.25-63.7,4.93,0,.63,11.48h.41q3.9-7.05,8.34-9.91A19.7,19.7,0,0,1,406.75,157.57Z"/><path class="cls-1" d="M472.79,190.31q.06,15.6-7.47,24.38t-20.83,8.84a27,27,0,0,1-14.78-4A25.84,25.84,0,0,1,419.88,208a42.21,42.21,0,0,1-3.47-17.45q-.06-15.59,7.47-24.32t20.71-8.79q13.13,0,20.63,8.75T472.79,190.31Zm-50.29.2q.06,13.13,5.86,20.46t16.35,7.29q10.55,0,16.29-7.42t5.69-20.5q0-13.2-5.91-20.44t-16.4-7.2q-10.56,0-16.24,7.3T422.5,190.51Z"/><path class="cls-1" d="M475,251.08a19.05,19.05,0,0,1-7.91-1.44l0-5a27.26,27.26,0,0,0,7.56,1.15q8.85,0,8.81-10.35l-.3-76.89,5.81,0,.29,76.07q0,7.91-3.68,12.2T475,251.08Zm7.26-110.27c0-3.75,1.21-5.63,3.67-5.64a3.26,3.26,0,0,1,2.84,1.46,7.18,7.18,0,0,1,1,4.15,7.44,7.44,0,0,1-1,4.17,3.23,3.23,0,0,1-2.84,1.53Q482.24,146.5,482.22,140.81Z"/><path class="cls-1" d="M529,223.21q-13.87,0-21.68-8.48t-7.86-23.94q-.06-15.22,7.41-24.43t20.18-9.25q11.25,0,17.79,7.78t6.59,21.31v4.69l-45.88.17q.17,13.14,6.2,20T529,217.93a52.78,52.78,0,0,0,9.58-.8A57,57,0,0,0,549,213.81l0,5.28a47.06,47.06,0,0,1-9.95,3.23A55.59,55.59,0,0,1,529,223.21Zm-1.93-61q-9.2,0-14.75,6.13t-6.43,17.52l39.38-.16q0-11.07-4.87-17.29T527.08,162.26Z"/><path class="cls-1" d="M588.59,223q-13.65,0-21.42-8.53t-7.83-24q-.06-15.82,7.93-24.68t22-8.9a44.09,44.09,0,0,1,15.83,2.81l-1.56,5.16a46.81,46.81,0,0,0-14.37-2.7q-11.72,0-17.73,7.31t-5.95,20.86q0,12.88,6.11,20.16t16.91,7.23a41.17,41.17,0,0,0,16.1-3.17l0,5.4Q598.49,222.95,588.59,223Z"/><path class="cls-1" d="M640.58,217.62a43.66,43.66,0,0,0,9.61-1l0,4.68a30.88,30.88,0,0,1-9.73,1.45q-8.43,0-12.47-4.47T624,204.15L623.79,163l-9.44,0v-3.4l9.42-2.67,2.88-14.43h3l.06,15.41,18.69-.07,0,5-18.69.07.15,40.32q0,7.33,2.62,10.83T640.58,217.62Z"/><path class="cls-1" d="M135.58,33.63l76.64,73.49v92.39H60.15V107l75.43-73.38M135.46,0,36,96.8V223.69H236.41V96.8L135.46,0Z"/><path class="cls-1" d="M233.16,50.57V82.76l7.4,6.66H272l-7.21-7.17H246l26-25.72L266.9,51,241,76.29v-18Z"/><path class="cls-1" d="M31,58.3v18L5.1,51,0,56.52,26,82.24H7.22L0,89.41H31.45l7.4-6.66V50.57Z"/><path class="cls-1" d="M39.28,270.81V238.62L31.89,232H.44l7.22,7.17H26.41l-26,25.73,5.11,5.51L31.4,245.09v18Z"/><path class="cls-1" d="M240.6,263.08v-18l25.86,25.28,5.11-5.51-26-25.73h18.75l7.22-7.17H240.11l-7.4,6.66v32.19Z"/><path class="cls-1" d="M554.9,42a11.42,11.42,0,0,1,1.54-5.77A11.25,11.25,0,0,1,560.67,32a11.58,11.58,0,0,1,11.56,0,11.3,11.3,0,0,1,4.24,4.22,11.62,11.62,0,0,1,.06,11.49A11.56,11.56,0,0,1,554.9,42Zm2.18,0a9.45,9.45,0,1,0,1.26-4.67A9.25,9.25,0,0,0,557.08,42Zm14.07-2.68a3.57,3.57,0,0,1-2.2,3.59l3.65,6.14h-3.91L566,43.86h-.72v5.19h-3.52V35h4.06a6.32,6.32,0,0,1,4.08,1.08A4,4,0,0,1,571.15,39.32Zm-5.92,2h.48a1.61,1.61,0,0,0,1.89-1.89,1.91,1.91,0,0,0-.43-1.42,2.13,2.13,0,0,0-1.49-.41h-.45Z"/></g></g></svg>