<svg xmlns="http://www.w3.org/2000/svg" viewBox="0 0 343.31 65.85"><defs><style>.cls-1{fill:#fff;}</style></defs><title>Asset 1</title><g id="Layer_2" data-name="Layer 2"><g id="Layer_1-2" data-name="Layer 1"><g id="Layer_1-2-2" data-name="Layer 1-2"><path class="cls-1" d="M153.57,60.49A34.48,34.48,0,0,0,158,65.85H112.46c0-1.79-1.72-5.48-3.68-8.4S96.37,38.69,96.37,38.69v21.8a11.3,11.3,0,0,0,.9,5.36h-38a11.3,11.3,0,0,0,.9-5.36V8.65a11.34,11.34,0,0,0-.9-5.36h38a11.34,11.34,0,0,0-.9,5.36V31.28s12.16-15.79,14.93-19.49C113.41,9,116,5.08,116,3.29h39.61c-2.73,1.79-5.76,5.1-8.21,8.1-2.16,2.65-14.52,17.68-14.52,17.68S151.19,56.91,153.57,60.49Zm12-51.84V60.49a11.3,11.3,0,0,1-.9,5.36H238V48.49a11.1,11.1,0,0,1-5.36.9H201.73V41.16h29.63V28H201.73V19.76h30.86a11.7,11.7,0,0,1,5.36.87V3.29H164.62a11.34,11.34,0,0,1,.9,5.36Zm174,51.82a16.23,16.23,0,0,0,2.94,5.38H302.77a11.49,11.49,0,0,0-1.2-5.36S301,59,300.14,56.9c-.06-.14-.36-.93-.36-.93H276.89l-.34.94s-.64,1.77-1.28,3.58-1.3,3.57-1,5.36H242.89a15.36,15.36,0,0,0,2.83-5.36c1-2.84,17.34-47.8,18.81-51.84a11.36,11.36,0,0,0,1.05-5.36h53c-.46,1.79.48,3.57,1.17,5.36ZM294.76,42.8c-2.88-7.52-5.28-13.83-5.53-14.48A36.18,36.18,0,0,1,288,24.2a30.46,30.46,0,0,1-1.09,4.12c-.2.57-2.51,7-5.24,14.48ZM41.3,3.29H0A11.46,11.46,0,0,1,.89,8.65V60.49A11.44,11.44,0,0,1,0,65.85H41.3a11.3,11.3,0,0,1-.9-5.36V8.65A11.34,11.34,0,0,1,41.3,3.29ZM326.84,8.23A8,8,0,0,1,334.6,0h.48a8.1,8.1,0,0,1,8.23,8v.28a8.24,8.24,0,0,1-16.47,0Zm1.64,0a6.59,6.59,0,1,0,13.17.52,4.51,4.51,0,0,0,0-.52,6.46,6.46,0,0,0-6.32-6.58h-.26a6.36,6.36,0,0,0-6.59,6.1A3.84,3.84,0,0,0,328.48,8.23Zm4.95,4.94H332V3.29h3.7a3.19,3.19,0,0,1,3.09,3.2A3.26,3.26,0,0,1,337,9.38l2.13,3.79h-1.64L335.56,9.7h-2.13Zm0-4.94h2a1.74,1.74,0,1,0,.26-3.47h-2.26Z"/></g></g></g></svg>